<?xml version="1.0" encoding="UTF-8" standalone="no"?>
<!DOCTYPE svg PUBLIC "-//W3C//DTD SVG 1.1//EN" "http://www.w3.org/Graphics/SVG/1.1/DTD/svg11.dtd">
<svg width="100%" height="100%" viewBox="0 0 692 786" version="1.1" xmlns="http://www.w3.org/2000/svg" xmlns:xlink="http://www.w3.org/1999/xlink" xml:space="preserve" xmlns:serif="http://www.serif.com/" style="fill-rule:evenodd;clip-rule:evenodd;stroke-linejoin:round;stroke-miterlimit:2;">
    <g transform="matrix(1,0,0,1,-55.703,-111.289)">
        <path d="M747.387,885.796C747.387,879.481 592.548,874.363 401.545,874.363C210.542,874.363 55.703,879.481 55.703,885.796C55.703,892.11 210.542,897.229 401.545,897.229C592.548,897.229 747.387,892.11 747.387,885.796Z" style="fill:rgb(224,224,224);fill-rule:nonzero;"/>
        <path d="M350.749,775.559L345.935,886.107L167.824,882.041L184.47,775.559L202.663,775.559C203.879,776.421 204.969,777.067 205.551,777.32C205.754,776.649 206.096,776.053 206.552,775.559L214.445,775.559C214.698,775.686 214.964,775.8 215.218,775.927C219.17,777.802 223.528,779.195 227.861,778.625C230.294,778.296 232.65,777.358 235.108,777.333C239.301,777.295 244.027,779.778 247.333,777.206C247.903,776.763 248.359,776.193 248.676,775.559L350.749,775.559Z" style="fill:rgb(226,202,170);fill-rule:nonzero;"/>
        <path d="M350.749,775.559L345.935,886.107L167.824,882.041C167.824,882.041 309.208,881.762 323.017,862.037C336.826,842.324 350.749,775.559 350.749,775.559Z" style="fill:rgb(216,183,143);fill-rule:nonzero;"/>
        <path d="M524.782,161.43C522.971,175.657 507.553,164.775 509.415,172.933C511.277,181.092 511.328,187.439 507.375,196.789C507.375,196.789 438.52,166.232 399.348,165.193C394.686,165.066 390.442,165.37 386.781,166.181C386.781,166.181 403.466,110.4 454.394,111.3C474.931,111.667 490.627,117.621 501.94,125.514C518.701,137.195 525.834,153.107 524.782,161.43Z" style="fill:rgb(55,71,79);fill-rule:nonzero;"/>
        <path d="M347.796,448.76C347.796,448.76 341.728,483.288 364.899,486.767C364.899,486.767 385.169,448.76 347.796,448.76Z" style="fill:rgb(130,119,23);fill-rule:nonzero;"/>
        <path d="M374.576,447.943L350.282,453.004C350.282,453.004 326.847,452.876 323.605,452.502C313.291,451.313 317.023,464.088 299.302,470.773C299.567,471.296 305.01,477.716 315.785,468.996C317.381,483.749 284.846,489.716 288.493,497.538C293.508,496.106 295.773,493.813 302.386,493.098C304.767,492.84 294.221,499.359 296.45,500.726C300.31,503.093 310.272,502.279 312.744,501.707C315.215,501.135 331.697,493.752 334.201,491.921C336.706,490.089 354.446,468.84 354.446,468.84L378.835,465.173L374.576,447.943Z" style="fill:rgb(247,184,138);fill-rule:nonzero;"/>
        <path d="M437.19,360.103L428.056,401.694L413.677,467.129C403.859,478.163 391.557,486.119 373.441,486.892C370.73,487.031 367.892,486.981 364.902,486.765C372.503,449.392 347.799,448.759 347.799,448.759C369.057,441.905 388.479,433.67 404.201,422.661C410.421,418.303 416.059,413.527 420.999,408.219C421.468,408.865 422.456,405.356 423.711,399.173C425.902,388.291 428.854,369.135 430.982,349.879C432.883,353.363 434.948,356.783 437.19,360.103Z" style="fill:rgb(158,157,36);fill-rule:nonzero;"/>
        <path d="M428.056,401.694L413.677,467.129C403.859,478.163 391.557,486.119 373.441,486.892L373.631,486.664C385.223,472.45 394.205,456.12 400.083,438.751C401.908,433.392 403.136,428.083 404.201,422.661C410.421,418.303 416.059,413.527 420.999,408.219C421.468,408.865 422.456,405.356 423.711,399.173C425.256,399.743 426.713,400.617 428.056,401.694Z" style="fill:rgb(145,142,28);fill-rule:nonzero;"/>
        <path d="M567.362,404.771L563.139,348.067C563.139,348.067 545.081,377.087 547.936,379.942C550.791,382.797 567.362,404.771 567.362,404.771Z" style="fill:rgb(247,184,138);fill-rule:nonzero;"/>
        <path d="M378.835,550.744C378.835,550.744 439.056,573.119 545.852,538.076C545.852,538.076 536.925,494.164 469.049,503.666C401.173,513.167 378.835,550.744 378.835,550.744Z" style="fill:rgb(130,119,23);fill-rule:nonzero;"/>
        <path d="M405.815,167.526C405.815,167.526 369.198,209.095 373.503,213.399C377.808,217.704 389.483,216.118 389.483,216.118C389.483,216.118 378.261,246.253 382.566,250.558C386.871,254.863 414.174,230.619 414.174,230.619L405.815,167.526Z" style="fill:rgb(124,53,39);fill-rule:nonzero;"/>
        <path d="M519.046,858.989L520.937,885.782L540.116,873.072C540.116,873.072 535.696,841.978 539.075,790.881C542.453,739.783 519.046,858.989 519.046,858.989Z" style="fill:rgb(247,184,138);fill-rule:nonzero;"/>
        <path d="M519.046,875.896C517.236,882.09 516.771,887.869 519.046,892.802L571.948,892.802C571.948,892.802 573.066,882.194 567.303,878.867C561.54,875.539 555.071,878.356 545.43,865.776C537.06,860.597 525.571,882.096 519.046,875.896Z" style="fill:rgb(62,39,35);fill-rule:nonzero;"/>
        <path d="M540.116,644.494L545.852,729.797C545.852,729.797 497.218,678.277 540.116,644.494Z" style="fill:rgb(247,184,138);fill-rule:nonzero;"/>
        <path d="M555.149,495.887C555.149,495.887 558.111,527.952 562.368,537.403C562.368,537.403 578.18,556.241 581.893,556.241C585.606,556.241 600.378,542.803 597.003,531.665C593.628,520.526 592.198,520.526 592.198,520.526C592.198,520.526 586.877,522.568 589.24,531.327C590.119,534.586 576.325,524.008 576.325,524.008L570.338,490.486L555.149,495.887Z" style="fill:rgb(247,184,138);fill-rule:nonzero;"/>
        <path d="M432.937,297.457C434.584,308.24 433.266,329.118 430.98,349.874C432.877,353.362 434.954,356.78 437.193,360.104L457.382,268.23C457.382,268.23 429.78,276.794 432.937,297.457Z" style="fill:rgb(145,142,28);fill-rule:nonzero;"/>
        <path d="M415.252,884.741L401.501,881.296C401.501,881.296 399.228,884.779 400.072,890.269L440.466,890.269L415.252,884.741Z" style="fill:rgb(247,184,138);fill-rule:nonzero;"/>
        <path d="M447.645,892.802L395.604,892.802L395.604,887.735L447.455,887.735L449.569,892.802L447.645,892.802Z" style="fill:rgb(62,39,35);fill-rule:nonzero;"/>
        <path d="M431.828,729.797L446.608,780.05L463.078,737.82L431.828,729.797Z" style="fill:rgb(247,184,138);fill-rule:nonzero;"/>
        <path d="M563.08,844.507C563.08,844.507 558.431,841.834 552.742,847.523C547.054,853.211 547.293,844.003 546.699,836.425C544.773,811.81 542.168,842.797 542.168,849.765C542.168,856.732 516.927,871.264 516.927,871.264C516.927,871.264 516.51,865.449 515.864,856.201C513.646,824.225 508.693,751.138 508.693,734.441C508.693,713.031 481.404,556.735 469.268,580.464C469.192,580.603 469.116,580.743 469.052,580.895C457.017,606.866 477.439,717.769 477.439,717.769C482.519,724.698 485.56,734.719 487.245,745.906C489.969,763.997 489.145,785.154 487.739,801.319C487.701,801.725 487.675,802.118 487.625,802.51C486.332,816.826 484.622,826.923 484.622,826.923C484.622,826.923 486.104,831.167 487.561,835.855C488.955,840.339 490.323,845.23 490.323,847.193C490.323,851.197 484.622,855.428 484.622,859.862C484.622,864.296 494.757,870.631 494.757,878.232C494.757,885.833 489.056,887.733 489.056,887.733C488.892,887.569 488.727,887.417 488.575,887.265C466.227,865.12 450.923,864.968 450.923,864.968C450.923,864.968 442.004,856.175 442.004,848.764C442.004,841.366 449.568,843.823 449.15,821.856C448.554,790.83 437.646,766.759 437.646,766.759C437.646,766.759 439.927,765.443 445.349,762.312C450.771,759.182 437.411,756.1 442.879,752.943C462.66,741.523 429.716,738.457 429.513,733.174C429.31,727.891 421.278,681.232 404.809,598.251C400.134,574.687 398.373,553.15 398.246,534.413C397.917,487.171 407.976,457.627 407.976,457.627L497.494,465.76L526.429,468.396C529.483,478.923 532.042,490.68 534.195,503.045C545.914,570.228 545.547,654.995 545.547,654.995C545.547,654.995 544.216,656.021 542.265,657.655C536.805,662.267 526.429,671.667 526.429,676.798C526.429,683.766 538.718,686.933 538.718,702.135C538.718,710.294 541.556,711.333 544.191,710.547C546.471,709.876 548.6,707.836 548.6,707.836C545.927,745.209 558.051,816.687 561.927,838.224C562.649,842.227 563.08,844.507 563.08,844.507Z" style="fill:rgb(78,52,46);fill-rule:nonzero;"/>
        <path d="M407.762,630.558C407.762,630.558 424.543,635.011 432.255,630.558L439.434,636.048C439.434,636.048 441.757,640.482 439.434,642.804C437.112,645.127 437.112,659.696 437.112,659.696C437.112,659.696 427.87,660.682 425.921,661.808C423.971,662.933 416.412,667.297 416.412,667.297L407.762,630.558Z" style="fill:rgb(109,76,65);fill-rule:nonzero;"/>
        <path d="M545.547,654.995C545.547,654.995 544.216,656.021 542.265,657.655C541.715,642.39 540.103,627.251 540.582,612.126C541.043,597.6 536.93,582.912 528.782,570.858C518.185,555.182 500.909,544.188 482.221,541.228C467.341,538.871 452.315,541.371 437.367,540.739C432.609,540.538 405.811,540.349 405.822,534.352C405.824,533.467 406.039,532.419 406.506,531.195C414.754,509.658 444.209,494.202 462.693,483.142C473.246,476.82 484.736,470.283 496.987,471.398C513.875,472.931 525.821,488.235 534.195,503.045C545.914,570.228 545.547,654.995 545.547,654.995Z" style="fill:rgb(62,39,35);fill-rule:nonzero;"/>
        <path d="M420.872,643.025C420.767,642.427 418.318,628.275 420.902,619.23L423.338,619.926C420.915,628.406 423.343,642.444 423.368,642.585L420.872,643.025Z" style="fill:rgb(62,39,35);fill-rule:nonzero;"/>
        <path d="M428.455,642.833C428.411,640.876 428.161,623.569 433.049,618.682L434.84,620.474C431.347,623.967 430.875,637.757 430.988,642.776L428.455,642.833Z" style="fill:rgb(62,39,35);fill-rule:nonzero;"/>
        <path d="M447.829,657.636C443.575,653.382 431.858,652.522 431.741,652.514L431.915,649.985C432.435,650.021 444.696,650.921 449.62,655.845L447.829,657.636Z" style="fill:rgb(62,39,35);fill-rule:nonzero;"/>
        <path d="M450.919,864.963L429.649,878.883C425.136,876.89 419.982,872.441 414.461,867.419L400.072,872.955C400.072,872.955 424.654,892.802 440.466,892.802L490.954,892.802L489.054,887.735C489.054,887.735 480.691,858.206 450.919,864.963Z" style="fill:rgb(62,39,35);fill-rule:nonzero;"/>
        <path d="M526.004,619.23C526.4,630.059 527.358,636.78 529.581,639.004C534.021,643.443 524.661,582.466 526.004,619.23Z" style="fill:rgb(247,184,138);fill-rule:nonzero;"/>
        <path d="M567.3,274.855C567.3,274.855 559.874,279.133 548.083,324.741C547.687,326.228 547.311,327.764 546.915,329.328C545.041,336.822 543.062,345.329 540.995,355.005C535.713,379.736 534.496,408.329 535.221,435.473C536.65,488.845 545.563,536.559 545.843,538.036C545.437,536.172 541.594,534.096 538.63,532.744L538.572,532.715C537.393,532.184 536.37,531.769 535.742,531.527C532.469,530.253 528.992,529.538 525.497,529.287C525.352,529.277 525.207,529.268 525.062,529.258C519.075,528.901 512.586,529.896 508.675,523.976C508.192,523.252 507.796,522.489 507.468,521.698C506.396,519.186 505.961,516.386 505.546,513.664C504.455,506.411 503.702,491.906 502.263,491.906C500.834,491.906 499.762,503.861 498.728,509.887C497.966,514.319 496.894,518.8 494.895,522.779C494.18,524.227 493.34,525.608 492.345,526.892C490.395,529.422 485.934,533.787 482.399,533.623C479.193,533.478 476.393,528.447 472.723,527.472C471.062,527.037 469.344,527.047 467.634,527.298C466.611,527.452 465.606,527.684 464.612,527.955L464.361,528.032C460.102,529.297 456.732,532.184 452.686,533.575C448.698,534.956 443.29,534.695 439.051,535.39L439.031,535.4C438.665,535.458 438.297,535.525 437.93,535.583C407.831,540.653 378.842,550.744 378.842,550.744C378.842,502.606 392.139,482.327 412.408,417.725C432.677,353.112 444.188,279.239 444.188,279.239L456.114,262.524C456.114,262.524 468.32,244.901 487.083,235.91C496.198,231.526 506.898,229.199 518.486,231.942C519.471,232.173 520.474,232.453 521.479,232.753C522.695,233.139 523.883,233.525 525.033,233.96C528.026,235.022 530.827,236.229 533.425,237.533C560.328,250.994 567.3,274.855 567.3,274.855Z" style="fill:rgb(158,157,36);fill-rule:nonzero;"/>
        <path d="M501.586,310.149C497.734,314.609 489.601,315.432 488.588,321.235C487.625,326.695 489.821,330.103 491.214,335.474C499.855,368.654 497.984,403.87 481.565,433.959C480.957,431.666 481.506,430.567 480.885,428.273C475.881,432.543 471.801,437.851 468.862,443.729C466.937,447.606 465.986,457.842 462.414,459.882C454.952,450.127 456.561,430.224 457.828,418.746C459.563,402.999 463.833,387.657 466.303,371.999C470.078,348.017 469.584,323.363 464.834,299.546C471.573,302.573 479.77,298.963 484.508,293.287C489.234,287.612 491.413,280.302 493.896,273.347C496.379,266.379 499.533,259.221 505.462,254.812C504.272,259.512 503.068,264.212 501.877,268.9C508.199,256.408 515.99,244.652 525.036,233.959C528.026,235.023 511.024,299.229 501.586,310.149Z" style="fill:rgb(145,142,28);fill-rule:nonzero;"/>
        <path d="M408.811,471.43C408.811,471.43 423.381,491.7 423.381,509.436C423.381,509.436 440.144,494.438 446.624,498.179C453.103,501.92 446.623,491.424 441.198,485.999C435.773,480.574 432.232,463.828 429.073,463.828C425.914,463.828 408.811,471.43 408.811,471.43Z" style="fill:rgb(130,119,23);fill-rule:nonzero;"/>
        <path d="M463.981,318.861C463.981,318.861 447.952,286.414 442.39,275.758C436.828,265.102 448.725,274.944 448.725,263.352C448.725,251.76 456.115,260.274 456.115,262.529C456.115,264.783 462.714,306.192 469.049,312.526L463.981,318.861Z" style="fill:rgb(153,77,77);fill-rule:nonzero;"/>
        <path d="M491.59,374.646C491.59,401.884 480.657,442.424 480.657,432.923C480.657,427.425 479.263,422.142 477.439,417.201L477.426,417.176L477.388,417.112C476.92,415.833 476.426,414.566 475.893,413.337C474.969,411.12 473.993,408.991 473.068,406.952C472.384,405.444 471.966,401.314 471.751,395.677C470.864,372.999 473.068,325.871 473.068,325.871L488.017,318.498C488.017,318.498 488.968,326.226 489.892,337.463C490.754,347.953 491.59,361.496 491.59,374.646Z" style="fill:rgb(153,77,77);fill-rule:nonzero;"/>
        <path d="M429.707,476.833L428.44,474.638L440.565,467.637L441.832,469.832L429.707,476.833Z" style="fill:rgb(189,189,189);fill-rule:nonzero;"/>
        <path d="M435.431,486.597L434.84,484.134C435.687,483.93 443.183,482.148 445.673,482.148L445.673,484.682C443.819,484.682 437.651,486.064 435.431,486.597Z" style="fill:rgb(189,189,189);fill-rule:nonzero;"/>
        <path d="M518.486,231.945C513.71,239.305 487.777,278.579 477.882,278.579C466.962,278.579 466.417,260.006 466.417,260.006L487.08,235.91C496.202,231.527 506.894,229.196 518.486,231.945Z" style="fill:rgb(145,142,28);fill-rule:nonzero;"/>
        <path d="M434.469,509.436L431.935,509.436C431.935,502.916 428.217,499.114 428.18,499.077L429.963,497.277C430.147,497.459 434.469,501.815 434.469,509.436Z" style="fill:rgb(189,189,189);fill-rule:nonzero;"/>
        <path d="M404.885,161.661C404.885,161.661 392.938,184.863 394.363,211.919C394.792,220.065 400.615,218.983 395.897,229.227C389.358,243.428 407.798,281.645 435.813,283.645C446.883,284.436 491.214,244.511 491.214,211.884C491.214,179.257 425.014,153.584 404.885,161.661Z" style="fill:rgb(247,184,138);fill-rule:nonzero;"/>
        <path d="M457.382,232.757C457.382,232.757 470.098,244.286 470.098,256.954C470.098,269.623 483.059,275.08 494.755,255.561C506.45,236.041 510.944,230.761 510.944,230.761C493.89,223.855 481.562,214.817 475.26,188.289L457.382,232.757Z" style="fill:rgb(247,184,138);fill-rule:nonzero;"/>
        <path d="M420.936,213.131C420.936,213.131 419.123,226.303 415.015,234.242C415.015,234.242 424.621,238.967 429.889,233.699C429.889,233.699 423.268,235.947 419.093,232.543C419.093,232.543 421.654,223.509 420.936,213.131Z" style="fill:rgb(206,126,91);fill-rule:nonzero;"/>
        <path d="M450.74,217.463C448.103,219.475 445.316,220.644 443.549,220.644C439.239,220.644 436.52,211.618 436.52,211.618C440.041,212.773 445.004,211.21 449.218,209.266C453.84,207.145 457.579,204.548 457.579,204.548C457.986,209.959 454.533,214.581 450.74,217.463Z" style="fill:white;fill-rule:nonzero;"/>
        <path d="M451.12,214.841C451.12,215.361 451.082,215.867 450.993,216.349C450.93,216.729 450.841,217.109 450.74,217.464C448.105,219.478 445.318,220.643 443.544,220.643C439.237,220.643 436.525,211.623 436.525,211.623C440.047,212.776 445.001,211.205 449.22,209.267C449.954,210.217 450.499,211.319 450.816,212.51C451.018,213.258 451.12,214.043 451.12,214.841Z" style="fill:rgb(81,48,43);fill-rule:nonzero;"/>
        <path d="M434.727,203.194C434.727,203.194 434.979,209.391 432.688,211.682C432.688,211.682 449.349,215.903 458.605,203.194C458.605,203.194 446.622,211.166 437.446,209.467L434.727,203.194Z" style="fill:rgb(206,126,91);fill-rule:nonzero;"/>
        <path d="M410.387,222.191C408.29,224.063 406.074,225.151 404.669,225.151C401.242,225.151 399.081,216.752 399.081,216.752C401.88,217.827 405.825,216.372 409.176,214.564C412.851,212.591 415.165,209.795 415.165,209.795C415.489,214.829 413.402,219.509 410.387,222.191Z" style="fill:white;fill-rule:nonzero;"/>
        <path d="M410.687,219.745C410.687,220.29 410.649,220.822 410.56,221.341C410.51,221.632 410.459,221.911 410.383,222.19C408.293,224.065 406.076,225.154 404.669,225.154C401.249,225.154 399.082,216.755 399.082,216.755C401.882,217.832 405.822,216.375 409.179,214.563C409.75,215.425 410.18,216.413 410.421,217.49C410.598,218.212 410.687,218.972 410.687,219.745Z" style="fill:rgb(81,48,43);fill-rule:nonzero;"/>
        <path d="M397.519,208.919C397.519,208.919 397.719,214.685 395.897,216.816C395.897,216.816 409.904,220.849 415.713,208.919C415.713,208.919 406.976,216.336 399.68,214.755L397.519,208.919Z" style="fill:rgb(206,126,91);fill-rule:nonzero;"/>
        <path d="M477.426,224.888C475.792,242.992 470.471,261.007 463.731,275.678C463.263,276.716 462.781,277.73 462.287,278.731C462.008,279.301 461.73,279.858 461.451,280.416C461.134,278.009 461.046,276.463 461.046,275.272C458.182,278.832 454.952,281.695 451.506,283.925C451.024,284.242 450.53,284.546 450.036,284.837C447.807,286.142 445.501,287.194 443.157,288.017C442.726,288.169 442.296,288.308 441.852,288.435C434.048,290.88 425.852,290.791 418.63,288.79C418.719,289.17 418.808,289.512 418.858,289.841C419.124,291.057 419.213,291.982 419.162,292.654C418.795,298.76 407.786,284.913 406.912,283.722C406.798,285.306 406.671,286.902 406.544,288.486C397.739,274.474 392.19,253.824 394.585,236.189C394.585,236.189 398.626,237.354 405.011,238.267C405.417,238.33 405.835,238.393 406.266,238.444C413.322,239.381 422.887,239.939 432.959,238.457C433.402,238.393 433.833,238.33 434.276,238.267C439.635,237.38 445.108,235.91 450.391,233.604C450.796,233.44 451.189,233.262 451.582,233.072C452.621,232.591 453.66,232.084 454.673,231.527C455.041,231.337 455.408,231.134 455.775,230.931C458.17,229.576 460.501,228.017 462.743,226.219C468.533,221.645 473.714,215.551 477.781,207.532C478.098,213.258 477.958,219.073 477.426,224.888Z" style="fill:rgb(124,53,39);fill-rule:nonzero;"/>
        <path d="M410.689,190.593C406.3,198.171 396.473,197.83 387.622,199.508L387.622,204.334C398.503,202.376 405.164,205.665 413.676,199.976L410.689,190.593Z" style="fill:rgb(91,37,26);fill-rule:nonzero;"/>
        <path d="M497.063,311.15C494.973,313.811 492.819,316.281 490.602,318.498L488.017,299.888L488.03,299.862C488.055,299.748 488.208,299.267 488.448,298.456L488.448,298.443C488.537,298.152 488.638,297.81 488.765,297.43C492.249,285.889 506.831,237.468 508.465,229.728C510.327,220.936 521.476,222.621 521.476,227.688C521.476,232.756 525.961,227.194 529.521,230.767C532.789,234.022 519.018,283.127 497.063,311.15Z" style="fill:rgb(153,77,77);fill-rule:nonzero;"/>
        <path d="M391.722,176.164C389.239,177.634 387.807,178.647 387.63,178.774C387.642,178.622 388.124,176.037 391.722,176.164Z" style="fill:rgb(132,65,49);fill-rule:nonzero;"/>
        <path d="M501.519,219.919C501.133,221.281 500.718,222.623 500.264,223.946C496.739,234.288 491.38,243.327 486.996,247.431C486.156,248.213 485.344,248.821 484.601,249.217C483.423,249.845 482.389,249.961 481.559,249.478C475.63,246.011 477.291,211.75 470.116,219.861C463.858,226.93 461.377,236.104 458.605,216.346C454.241,185.3 423.687,172.669 423.687,172.669C423.687,172.669 423.813,198.066 417.391,192.34C403.032,179.555 395.577,176.291 391.724,176.165C404.606,168.478 445.791,148.296 486.812,175.228C489.661,177.102 492.5,179.188 495.339,181.534C505.691,190.08 505.546,205.753 501.519,219.919Z" style="fill:rgb(124,53,39);fill-rule:nonzero;"/>
        <path d="M451.12,214.841C451.12,215.361 451.082,215.867 450.993,216.349C449.46,216.311 448.231,215.475 448.231,214.423C448.231,213.422 449.359,212.599 450.816,212.51C451.018,213.258 451.12,214.043 451.12,214.841Z" style="fill:white;fill-rule:nonzero;"/>
        <path d="M410.687,219.745C410.687,220.29 410.649,220.822 410.56,221.341C409.027,221.303 407.798,220.467 407.798,219.415C407.798,218.402 408.951,217.578 410.421,217.49C410.598,218.212 410.687,218.972 410.687,219.745Z" style="fill:white;fill-rule:nonzero;"/>
        <path d="M424.149,251.492L424.149,254.817C424.149,254.817 428.108,253.551 433.017,254.817C433.017,254.817 430.958,251.492 424.149,251.492Z" style="fill:rgb(91,37,26);fill-rule:nonzero;"/>
        <path d="M465.192,199.976C452.156,196.615 442.609,200.995 432.576,195.503L433.063,184.863C439.048,193.364 457.185,192.171 465.277,195.452L465.192,199.976Z" style="fill:rgb(91,37,26);fill-rule:nonzero;"/>
        <path d="M489.892,337.463C489.365,335.208 488.664,330.06 483.335,333.137C478.006,336.214 477.439,417.201 477.439,417.201L477.426,417.176L477.388,417.112C477.224,416.808 476.692,415.719 475.893,413.337C474.842,410.157 473.347,404.671 471.751,395.677C470.864,372.999 473.068,325.871 473.068,325.871L488.017,318.498C488.017,318.498 488.968,326.226 489.892,337.463Z" style="fill:rgb(137,66,66);fill-rule:nonzero;"/>
        <path d="M473.068,426.589C461.448,438.421 467.462,476.096 461.451,462.175C442.03,417.201 455.953,356.859 464.137,335.563C466.911,328.329 469.052,324.3 469.052,324.3L476.514,324.174L476.514,396.817C476.514,406.952 480.048,419.481 473.068,426.589Z" style="fill:rgb(153,77,77);fill-rule:nonzero;"/>
        <path d="M476.514,324.174L476.514,335.994C473.208,336.931 468.229,336.931 464.137,335.563C466.911,328.329 469.052,324.3 469.052,324.3L476.514,324.174Z" style="fill:rgb(137,66,66);fill-rule:nonzero;"/>
        <path d="M497.063,311.15C494.973,313.811 492.819,316.281 490.602,318.498L488.017,299.888L488.03,299.862C488.055,299.748 488.208,299.267 488.448,298.456L488.448,298.443C488.537,298.152 488.638,297.81 488.765,297.43C495.087,296.581 492.87,306.894 495.847,309.896C496.252,310.301 496.67,310.72 497.063,311.15Z" style="fill:rgb(137,66,66);fill-rule:nonzero;"/>
        <path d="M491.59,308.135C491.59,322.489 488.322,325.238 479.96,330.052C478.731,330.749 477.401,331.509 475.944,332.345C464.605,338.882 461.451,323.971 461.451,310.124C461.451,304.866 462.021,301.294 462.997,299.064C464.567,295.428 467.19,295.403 470.053,297.481C477.882,303.182 491.59,291.666 491.59,308.135Z" style="fill:rgb(153,77,77);fill-rule:nonzero;"/>
        <path d="M491.59,308.135C491.59,322.489 488.322,325.238 479.96,330.052C486.472,323.477 489.981,313.887 488.917,304.651C488.803,303.726 488.588,302.687 487.789,302.206C487.004,301.725 485.99,301.991 485.142,302.333C479.403,304.676 474.056,298.906 474.829,307.939C475.602,316.972 472.902,301.654 467.469,299.052C466.107,298.399 464.441,298.595 462.997,299.064C464.567,295.428 467.19,295.403 470.053,297.481C477.882,303.182 491.59,291.666 491.59,308.135Z" style="fill:rgb(137,66,66);fill-rule:nonzero;"/>
        <path d="M449.074,532.03C454.134,530.542 459.223,529.21 464.361,528.032C460.102,529.297 456.732,532.184 452.686,533.575C448.698,534.956 443.29,534.695 439.051,535.39L439.031,535.4C438.665,535.458 438.297,535.525 437.93,535.583C441.619,534.309 445.337,533.13 449.074,532.03Z" style="fill:rgb(145,142,28);fill-rule:nonzero;"/>
        <path d="M467.634,527.298C476.634,525.338 485.74,523.851 494.895,522.779C494.18,524.227 493.34,525.608 492.345,526.892C490.395,529.422 485.934,533.787 482.399,533.623C479.193,533.478 476.393,528.447 472.723,527.472C471.062,527.037 469.344,527.047 467.634,527.298Z" style="fill:rgb(145,142,28);fill-rule:nonzero;"/>
        <path d="M540.995,355.005C535.713,379.736 534.496,408.329 535.221,435.473C536.65,488.845 545.563,536.559 545.843,538.036L545.853,538.075C543.921,536.143 541.401,534.27 538.63,532.744L538.572,532.715C534.545,530.504 529.977,529.026 525.854,529.191C525.593,529.2 525.332,529.229 525.062,529.258C519.075,528.901 512.586,529.896 508.675,523.976C508.192,523.252 507.796,522.489 507.468,521.698C517.24,521.581 533.521,523.126 530.47,509.356C528.094,498.57 528.123,485.504 524.28,475.317C514.681,449.91 474.597,460.523 509.747,443.334C489.641,438.786 512.991,432.46 516.989,417.358C522.908,394.974 519.567,369.577 524.598,346.507C527.042,335.277 530.363,324.239 534.757,313.617C538.658,304.202 549.937,291.851 551.647,282.417C548.489,299.837 547.678,311.763 546.915,329.328C545.041,336.822 543.062,345.329 540.995,355.005Z" style="fill:rgb(145,142,28);fill-rule:nonzero;"/>
        <path d="M549.36,522.872C549.36,522.872 525.927,388.379 530.597,356.277C544.75,258.991 567.299,274.854 567.299,274.854C567.299,274.854 572.1,348.646 572.1,358.126C572.1,367.607 557.493,378.536 557.493,382.045C557.493,387.112 571.847,390.508 576.243,389.063C576.978,392.636 577.763,395.563 578.612,397.666C585.631,415.136 559.052,443.058 585.023,503.868C589.419,517.716 560.23,521.466 549.36,522.872Z" style="fill:rgb(158,157,36);fill-rule:nonzero;"/>
        <path d="M494.757,878.232C494.757,885.833 489.056,887.733 489.056,887.733C488.892,887.569 488.727,887.417 488.575,887.265C486.801,879.359 484.635,872.113 478.44,866.032C466.075,853.908 470.395,853.604 481.569,849.879C486.409,847.662 488.169,841.264 486.485,836.184C486.066,834.93 485.433,833.752 484.584,832.738C481.24,828.76 471.029,827.227 472.207,821.678C473.182,817.117 477.743,819.499 480.074,817.536C483.545,814.609 484.508,806.425 484.901,802.257C484.939,801.864 484.977,801.484 485.002,801.091C487.815,767.443 473.841,734.859 466.43,701.857C457.296,661.19 458.182,618.318 469.002,578.07L469.268,580.464C469.192,580.603 469.116,580.743 469.052,580.895C457.017,606.866 477.439,717.769 477.439,717.769C482.519,724.698 485.56,734.719 487.245,745.906C489.969,763.997 489.145,785.154 487.739,801.319C487.701,801.725 487.675,802.118 487.625,802.51C486.332,816.826 484.622,826.923 484.622,826.923C484.622,826.923 486.104,831.167 487.561,835.855C488.955,840.339 490.323,845.23 490.323,847.193C490.323,851.197 484.622,855.428 484.622,859.862C484.622,864.296 494.757,870.631 494.757,878.232Z" style="fill:rgb(62,39,35);fill-rule:nonzero;"/>
        <path d="M561.927,838.224C548.549,815.889 547.003,787.751 546.041,761.324C545.42,744.398 544.812,727.473 544.191,710.547C546.471,709.876 548.6,707.836 548.6,707.836C545.927,745.209 558.051,816.687 561.927,838.224Z" style="fill:rgb(62,39,35);fill-rule:nonzero;"/>
        <path d="M487.063,247.334L486.996,247.431C486.156,248.213 485.344,248.821 484.601,249.217C482.409,191.905 452.126,176.667 451.826,176.522L452.927,174.234C454.221,174.842 484.253,189.868 487.063,247.334Z" style="fill:rgb(91,37,26);fill-rule:nonzero;"/>
        <path d="M501.519,219.919C501.133,221.281 500.718,222.623 500.264,223.946C486.59,185.783 462.593,178.048 462.313,177.961L463.057,175.537C464.216,175.885 487.42,183.282 501.519,219.919Z" style="fill:rgb(91,37,26);fill-rule:nonzero;"/>
        <path d="M419.162,292.654C406,273.118 404.872,248.186 405.011,238.267C405.417,238.33 405.835,238.393 406.266,238.444C406.152,247.958 407.216,271.041 418.858,289.841C419.124,291.057 419.213,291.982 419.162,292.654Z" style="fill:rgb(91,37,26);fill-rule:nonzero;"/>
        <path d="M451.506,283.925C451.024,284.242 450.53,284.546 450.036,284.837C454.47,263.465 451.62,241.193 450.391,233.604C450.796,233.44 451.189,233.262 451.582,233.072C452.773,240.294 455.712,262.401 451.506,283.925Z" style="fill:rgb(91,37,26);fill-rule:nonzero;"/>
        <path d="M463.731,275.678C463.263,276.716 462.781,277.73 462.287,278.731C463.896,254.787 458.03,238.621 454.673,231.527C455.041,231.337 455.408,231.134 455.775,230.931C459.069,237.874 464.656,253.19 463.731,275.678Z" style="fill:rgb(91,37,26);fill-rule:nonzero;"/>
        <path d="M524.782,161.43C522.971,175.657 507.553,164.775 509.415,172.933C511.277,181.092 511.328,187.439 507.375,196.789C507.375,196.789 438.52,166.232 399.348,165.193C398.905,157.287 400.653,152.803 400.653,152.803C400.653,152.803 444.285,139.741 469.052,154.044C493.82,168.335 480.518,151.84 484.166,148.204C487.46,144.91 519.677,154.412 501.94,125.514C518.701,137.195 525.834,153.107 524.782,161.43Z" style="fill:rgb(38,50,56);fill-rule:nonzero;"/>
        <path d="M383.778,194.38C383.778,194.38 401.819,177.741 415.793,177.909C429.767,178.077 478.853,177.515 509.531,206.108C509.531,206.108 511.063,198.657 511.063,193.961C511.063,189.266 463.46,147.09 424.71,148.228C385.599,149.376 376.675,164.068 376.675,168.428C376.675,172.788 383.778,194.38 383.778,194.38Z" style="fill:rgb(55,71,79);fill-rule:nonzero;"/>
        <path d="M399.449,183.089C400.579,182.458 401.74,181.86 402.915,181.303L395.619,152.757C394.351,153.186 393.155,153.633 392.039,154.097L399.449,183.089Z" style="fill:rgb(38,50,56);fill-rule:nonzero;"/>
        <path d="M468.318,160.576C467.197,159.985 466.067,159.407 464.926,158.842L455.354,181.158C456.615,181.394 457.884,181.644 459.164,181.916L468.318,160.576Z" style="fill:rgb(38,50,56);fill-rule:nonzero;"/>
        <path d="M417.344,177.925L416.2,148.734C414.898,148.85 413.634,148.982 412.412,149.13L413.544,178.028C414.302,177.947 415.054,177.9 415.793,177.909C416.268,177.915 416.79,177.92 417.344,177.925Z" style="fill:rgb(38,50,56);fill-rule:nonzero;"/>
        <path d="M500.012,182.043C498.676,180.903 497.242,179.723 495.711,178.508L498.2,197.311C499.63,198.24 501.036,199.217 502.42,200.239L500.012,182.043Z" style="fill:rgb(38,50,56);fill-rule:nonzero;"/>
        <path d="M485.179,170.759C484.012,169.963 482.813,169.17 481.594,168.379L479.676,187.937C480.904,188.413 482.128,188.909 483.348,189.431L485.179,170.759Z" style="fill:rgb(38,50,56);fill-rule:nonzero;"/>
        <path d="M432.116,178.371C433.341,178.444 434.618,178.535 435.92,178.636L440.247,149.839C439,149.565 437.755,149.324 436.512,149.115L432.116,178.371Z" style="fill:rgb(38,50,56);fill-rule:nonzero;"/>
        <path d="M325.884,836.091L324.3,849.976L320.461,883.751L319.549,891.821L294.63,891.821L286.61,841.159C298.215,838.333 311.492,836.775 325.884,836.091Z" style="fill:white;fill-rule:nonzero;"/>
        <path d="M259.827,889.004C259.827,889.752 259.282,890.406 258.363,890.936C253.145,893.942 235.683,893.334 235.683,888.988C235.683,886.138 240.107,884.798 245.169,884.611C251.93,884.346 259.827,886.122 259.827,889.004Z" style="fill:rgb(189,189,189);fill-rule:nonzero;"/>
        <path d="M241.244,891.291C239.375,890.793 238.129,890.014 238.129,888.97C238.129,887.584 239.437,886.649 241.384,886.104C240.294,886.758 239.608,887.74 239.608,889.017C239.608,889.952 240.232,890.715 241.244,891.291Z" style="fill:rgb(224,224,224);fill-rule:nonzero;"/>
        <path d="M259.827,889.004C259.827,889.752 259.282,890.406 258.363,890.936C251.556,891.403 243.456,890.172 243.456,887.213C243.456,886.122 244.095,885.266 245.169,884.611C251.93,884.346 259.827,886.122 259.827,889.004Z" style="fill:rgb(153,153,153);fill-rule:nonzero;"/>
        <path d="M267.6,884.892C267.6,886.247 265.84,887.244 263.27,887.883C256.323,889.596 243.456,888.615 243.456,884.876C243.456,880.53 253.783,879.72 260.918,881.091C264.703,881.807 267.6,883.147 267.6,884.892Z" style="fill:rgb(189,189,189);fill-rule:nonzero;"/>
        <path d="M258.907,883.949C258.907,884.678 257.959,885.214 256.578,885.558C252.84,886.48 245.918,885.952 245.918,883.941C245.918,881.603 251.474,881.167 255.312,881.904C257.349,882.29 258.907,883.01 258.907,883.949Z" style="fill:rgb(224,224,224);fill-rule:nonzero;"/>
        <path d="M267.6,884.892C267.6,886.247 265.84,887.244 263.27,887.883C260.637,885.998 259.064,883.77 260.2,881.854C260.388,881.543 260.637,881.293 260.918,881.091C264.703,881.807 267.6,883.147 267.6,884.892Z" style="fill:rgb(153,153,153);fill-rule:nonzero;"/>
        <path d="M260.2,879.365C257.086,884.587 274.32,892.208 277.835,888.693C281.35,885.177 263.317,874.143 260.2,879.365Z" style="fill:rgb(189,189,189);fill-rule:nonzero;"/>
        <path d="M267.351,885.997C263.846,884.242 261.368,881.946 262.725,880.033C263.317,879.188 264.469,878.845 265.902,878.872C265.155,879.096 264.563,879.479 264.173,880.046C262.849,881.919 264.469,884.097 267.351,885.997Z" style="fill:rgb(224,224,224);fill-rule:nonzero;"/>
        <path d="M350.749,775.559L361.445,878.87L346.288,877.985L350.749,775.559Z" style="fill:rgb(206,166,124);fill-rule:nonzero;"/>
        <path d="M420.134,247.22C421.399,249.341 425.291,249.865 427.509,250.112C429.792,250.367 434.479,251.016 435.811,248.608C436.054,248.168 435.946,247.499 435.458,247.261C434.527,246.805 434.088,246.899 433.094,247.064C431.39,247.346 429.669,247.32 427.953,247.163C425.742,246.96 422.454,245.865 420.345,246.704C420.139,246.786 420.008,247.008 420.134,247.22Z" style="fill:rgb(247,184,138);fill-rule:nonzero;"/>
        <path d="M442.348,251.019C429.081,243.36 415.511,248.891 415.375,248.948L414.396,246.611C414.998,246.359 429.274,240.544 443.615,248.824L442.348,251.019Z" style="fill:rgb(91,37,26);fill-rule:nonzero;"/>
    </g>
</svg>
