<?xml version="1.0" encoding="UTF-8" standalone="no"?>
<!DOCTYPE svg PUBLIC "-//W3C//DTD SVG 1.1//EN" "http://www.w3.org/Graphics/SVG/1.1/DTD/svg11.dtd">
<svg width="100%" height="100%" viewBox="0 0 644 786" version="1.1" xmlns="http://www.w3.org/2000/svg" xmlns:xlink="http://www.w3.org/1999/xlink" xml:space="preserve" xmlns:serif="http://www.serif.com/" style="fill-rule:evenodd;clip-rule:evenodd;stroke-linejoin:round;stroke-miterlimit:2;">
    <g transform="matrix(1,0,0,1,-828.974,-111.289)">
        <path d="M1472.89,886.585C1472.89,880.707 1328.74,875.942 1150.93,875.942C973.119,875.942 828.974,880.707 828.974,886.585C828.974,892.464 973.119,897.229 1150.93,897.229C1328.74,897.229 1472.89,892.464 1472.89,886.585Z" style="fill:rgb(224,224,224);fill-rule:nonzero;"/>
        <path d="M1472.89,886.585C1472.89,886.585 1328.74,875.942 1150.93,875.942C973.119,875.942 828.974,886.585 828.974,886.585C828.974,886.585 973.119,897.229 1150.93,897.229C1328.74,897.229 1472.89,886.585 1472.89,886.585Z" style="fill:rgb(224,224,224);fill-rule:nonzero;"/>
        <path d="M966.088,852.776C966.088,852.776 953.029,868.559 932.083,874.988C918.553,879.141 908.691,877.15 908.691,877.15L905.546,886.585L992.821,886.585C992.821,886.585 1002.26,852.776 966.088,852.776Z" style="fill:rgb(33,33,33);fill-rule:nonzero;"/>
        <path d="M1184.97,734.734C1182.58,755.635 1170.22,787.926 1162.6,806.364C1162.48,806.652 1162.36,806.939 1162.24,807.227C1159.03,814.949 1156.74,820.046 1156.51,820.532C1151.16,832.326 1159.31,837.837 1146.46,846.476L1146.46,861.219C1146.46,861.219 1144.75,860.23 1142,858.639C1140.31,857.668 1138.23,856.481 1135.92,855.133C1129.83,851.618 1118.61,877.931 1118.61,877.931L1113.9,856.706L1135.13,814.248C1141.91,795.81 1145.37,765.182 1146.62,731.012C1147.78,699.243 1147.03,664.408 1145.24,633.465C1142.15,580.292 1133.14,569.917 1126.88,564.955C1126.81,564.892 1126.72,564.856 1126.63,564.847C1119.58,563.175 1074.44,686.109 1073.04,689.929L1073.01,690.019C1073.01,690.019 1078.52,719.101 1073.01,735.615C1067.52,752.129 1015.65,832.398 1011.68,834.681C1007.72,836.983 1012.23,849.46 1007.75,852.778C997.576,860.311 999.886,870.856 999.886,870.856L992.811,886.579C986.527,860.167 966.085,852.778 966.085,852.778L985.736,836.264L992.029,809.528C1049.48,703.513 1066.32,567.607 1071.15,506.999C1072.73,487.141 1073.01,475.373 1073.01,475.373L1172.08,450.202C1172.08,450.202 1172.54,447.964 1173.81,447.964C1176.59,447.964 1183.21,458.706 1197.25,527.262C1197.65,529.212 1198.01,531.154 1198.34,533.105C1198.67,535.083 1198.99,537.087 1199.28,539.119C1200.39,547.201 1201.11,555.687 1201.46,564.497C1201.54,566.223 1201.59,567.931 1201.62,569.639C1201.65,570.502 1201.67,571.365 1201.68,572.219C1201.69,573.073 1201.7,573.909 1201.71,574.745C1201.91,596.059 1192.53,668.364 1184.97,734.734Z" style="fill:rgb(66,66,66);fill-rule:nonzero;"/>
        <path d="M1118.62,877.937L1118.62,886.585L1167.37,886.585C1167.37,886.585 1167.28,878.469 1163.55,876.757C1151.1,871.043 1146.46,861.221 1146.46,861.221C1146.46,861.221 1128.84,822.112 1118.62,877.937Z" style="fill:rgb(33,33,33);fill-rule:nonzero;"/>
        <path d="M992.811,886.579C997.719,855.313 998.061,849.649 993.935,845.514C989.809,841.379 1005.22,845.514 1000.5,837.297C997.047,831.28 1001.18,830.475 1003.64,830.475C1004.54,830.475 1005.22,830.582 1005.22,830.582C1005.22,830.582 1052.39,761.389 1060.98,737.881C1069.56,714.39 1060.98,689.328 1060.98,689.328C1060.98,689.328 1099.46,564.757 1115.38,553.029C1115.72,552.775 1116.09,552.66 1116.47,552.66C1120.25,552.66 1125.51,564.218 1126.63,564.847C1126.58,564.836 1126.53,564.83 1126.48,564.83C1124.03,564.83 1117.59,577.84 1110.01,595.469C1105.89,594.231 1101.38,593.424 1096.61,593.424L1093.46,625.548C1095.01,625.092 1096.54,624.696 1098.09,624.384C1085.61,655.686 1073.75,688 1073.04,689.929L1073.01,690.019C1073.01,690.019 1075.46,702.957 1075.46,716.474C1075.46,723.223 1074.84,730.116 1073.01,735.615C1067.52,752.129 1015.65,832.398 1011.68,834.681C1010.12,835.585 1009.87,838.057 1009.87,840.927C1009.87,842.283 1009.93,843.729 1009.93,845.14C1009.93,848.348 1009.64,851.378 1007.75,852.778C1000.76,857.957 999.661,864.559 999.661,868.18C999.66,869.826 999.886,870.856 999.886,870.856L992.811,886.579Z" style="fill:rgb(59,59,59);fill-rule:nonzero;"/>
        <path d="M1131.62,844.641C1130.95,844.641 1130.28,844.567 1129.62,844.414C1130.03,844.337 1130.43,844.3 1130.83,844.3C1131.47,844.3 1132.09,844.396 1132.7,844.578C1132.34,844.62 1131.98,844.641 1131.62,844.641Z" style="fill:rgb(59,59,59);fill-rule:nonzero;"/>
        <path d="M1201.46,564.497C1201.35,561.731 1201.2,558.997 1201.02,556.298C1201.02,556.297 1201.03,556.295 1201.03,556.295C1201.22,559.027 1201.36,561.762 1201.46,564.497Z" style="fill:rgb(211,211,211);fill-rule:nonzero;"/>
        <path d="M1146.46,861.219L1146.46,861.218C1146.38,861.037 1143.47,854.648 1139.35,850.788C1138,847.989 1135.56,845.397 1132.7,844.579C1137.51,844.022 1141.96,839.887 1142.26,834.969C1142.37,833.081 1141.97,831.166 1142.37,829.333C1143.67,823.435 1154.15,820.415 1160.26,806.508C1160.4,806.193 1160.53,805.869 1160.67,805.546C1164.59,795.981 1166.45,781.499 1162.29,758.071C1160.54,748.282 1155.11,745.216 1149.86,737.161C1149.24,736.211 1148.67,735.234 1148.14,734.239L1184.87,735.574C1182.26,756.492 1170.12,788.172 1162.6,806.364C1162.48,806.652 1162.36,806.939 1162.24,807.227C1159.03,814.949 1156.74,820.046 1156.51,820.532C1151.16,832.326 1159.31,837.837 1146.46,846.476L1146.46,861.219ZM1148.29,607.919C1148.77,606.547 1149.34,605.204 1150.01,603.898C1154.15,595.862 1207.66,579.438 1150.38,560.712L1150.38,560.711C1153.02,561.497 1156.43,561.926 1160.88,561.926C1164.18,561.926 1168.06,561.689 1172.61,561.187C1172.96,561.151 1173.31,561.104 1173.66,561.069C1183.98,559.871 1193.19,558.134 1201.02,556.298C1201.2,558.997 1201.35,561.731 1201.46,564.497C1201.54,566.223 1201.59,567.931 1201.62,569.639C1201.65,570.502 1201.67,571.365 1201.68,572.219C1201.69,572.761 1201.7,573.296 1201.7,573.828L1181.52,575.528L1184.56,607.157L1148.29,607.919ZM1198.63,606.862L1195.94,587.506L1201.66,578.851C1201.45,585.53 1200.68,595.151 1199.55,606.843L1198.63,606.862ZM1135.66,523.089C1125.64,516.453 1114.05,512.466 1102.33,509.83C1091.95,507.511 1081.47,508.338 1071.15,506.999C1072.73,487.141 1073.01,475.373 1073.01,475.373L1127.82,461.447C1129.98,485.759 1133.15,507.986 1135.66,523.089Z" style="fill:rgb(59,59,59);fill-rule:nonzero;"/>
        <path d="M1146.46,861.218C1146.39,861.178 1144.7,860.197 1142,858.639C1141.2,856.05 1140.57,853.416 1139.44,850.971C1139.41,850.909 1139.38,850.849 1139.35,850.788C1143.47,854.648 1146.38,861.037 1146.46,861.218Z" style="fill:rgb(33,33,33);fill-rule:nonzero;"/>
        <path d="M951.038,343.424C951.038,343.424 963.478,315.998 983.688,313.914C983.688,313.914 991.539,338.891 983.688,343.424C975.836,347.957 951.038,343.424 951.038,343.424Z" style="fill:rgb(55,71,79);fill-rule:nonzero;"/>
        <path d="M977.378,314.121C977.378,314.121 950.905,315.387 954.074,334.096C954.074,334.096 964.336,335.503 971.899,328.234C979.462,320.966 977.378,314.121 977.378,314.121Z" style="fill:rgb(189,189,189);fill-rule:nonzero;"/>
        <path d="M945.032,319.032L961.994,332.298L972.854,322.244L969.118,296.678L943.675,308.96L945.032,319.032Z" style="fill:rgb(247,184,138);fill-rule:nonzero;"/>
        <path d="M954.908,326.862C954.908,326.862 960.93,325.577 962.943,323.563C964.957,321.549 961.451,309.138 965.833,302.175C970.216,295.212 940.175,283.586 945.072,300.996C949.97,318.406 954.908,326.862 954.908,326.862Z" style="fill:rgb(244,165,110);fill-rule:nonzero;"/>
        <path d="M997.506,282.129C997.506,282.129 993.402,285.915 985.393,291.092C983.223,292.507 980.747,294.017 977.987,295.597C965.332,302.803 945.613,313.465 920.763,316.697C918.723,316.968 916.647,317.18 914.548,317.345C910.443,317.652 905.077,312.227 908.804,309.326C909.972,308.429 911.623,307.049 914.123,305.198C915.892,303.877 918.086,302.32 920.834,300.504C926.648,296.647 934.963,291.635 947.052,285.301C954.965,281.15 962.431,278.308 969.012,276.362C971.677,275.56 974.189,274.923 976.536,274.392C987.339,271.963 994.298,272.092 994.298,272.092C994.298,272.092 1000.7,277.211 997.506,282.129Z" style="fill:rgb(93,64,55);fill-rule:nonzero;"/>
        <path d="M985.396,291.096C983.22,292.505 980.751,294.023 977.989,295.595L975.1,287.978C975.1,287.978 971.716,290.392 969.311,287.978C966.897,285.573 971.716,280.855 971.716,280.855L969.01,276.356C971.68,275.56 974.194,274.92 976.535,274.39L979.37,279.346C979.37,279.346 981.693,278.002 984.546,280.855C987.408,283.717 981.802,286.268 981.802,286.268L985.396,291.096Z" style="fill:rgb(245,124,0);fill-rule:nonzero;"/>
        <path d="M974.714,323.563C974.714,323.563 970.499,297.28 980.123,285.319C980.123,285.319 965.833,279.585 965.833,304.609C965.833,304.609 963.252,318.503 974.714,323.563Z" style="fill:rgb(247,184,138);fill-rule:nonzero;"/>
        <path d="M930.784,319.53C934.958,321.55 948.098,328.22 950.46,329.584C951.559,330.218 954.142,328.354 956.468,325.689C956.892,325.204 954.074,317.353 954.074,317.353C954.074,317.353 959.125,321.205 962.157,318.603C960.944,313.744 953.979,298.837 952.973,298.089C951.966,297.341 945.072,298.944 945.072,300.996C945.072,303.049 945.82,305.008 945.82,305.008C945.82,305.008 926.611,317.511 930.784,319.53Z" style="fill:rgb(247,184,138);fill-rule:nonzero;"/>
        <path d="M948.123,274.042C948.123,277.164 946.389,293.211 946.389,293.211C953.81,293.492 955.288,281.584 955.288,281.584L963.427,278.335C963.427,278.335 956.063,272.314 954.908,271.159C953.753,270.004 948.123,270.921 948.123,274.042Z" style="fill:rgb(247,184,138);fill-rule:nonzero;"/>
        <path d="M966.027,345.782L954.074,334.096C963.529,332.157 975.792,320.84 977.378,314.121L987.872,327.32L966.027,345.782Z" style="fill:rgb(245,245,245);fill-rule:nonzero;"/>
        <path d="M920.768,316.688C919.919,316.806 919.058,316.912 918.197,317.007C916.994,317.136 915.768,317.242 914.541,317.337C910.437,317.655 905.071,312.23 908.809,309.329C909.293,308.951 909.847,308.503 910.508,307.984C911.463,307.218 912.642,306.298 914.128,305.201C916.9,304.753 919.695,305.036 920.532,307.524C922.361,312.938 916.369,313.504 919.023,315.049C919.613,315.379 920.202,315.98 920.768,316.688Z" style="fill:rgb(62,39,35);fill-rule:nonzero;"/>
        <path d="M1073.88,293.313L1072.12,378.311C1057.62,399.033 1040.3,415.733 1028.64,420.993C1023.35,423.387 1019.24,423.423 1017.08,420.427C994.102,388.454 973.263,365.645 951.043,343.425C968.333,343.425 983.689,313.916 983.689,313.916C1000.67,337.504 1026.63,370.692 1026.63,370.692C1044.2,355.678 1051.96,344.486 1056.72,334.155C1062.7,321.134 1063.89,309.494 1073.88,293.313Z" style="fill:rgb(69,90,100);fill-rule:nonzero;"/>
        <path d="M918.197,317.007C917.643,317.066 917.077,317.124 916.511,317.172C915.85,317.231 915.202,317.29 914.541,317.337C914.081,317.372 913.609,317.337 913.138,317.242C910.024,316.617 906.852,313.409 907.689,310.85C907.854,310.308 908.22,309.789 908.809,309.329C909.293,308.951 909.847,308.503 910.508,307.984C910.814,307.89 911.109,307.807 911.404,307.737C911.687,307.666 911.97,307.595 912.23,307.536C915.119,306.887 914.812,309.034 915.131,311.098C915.32,312.372 916.204,313.409 916.971,314.459C917.525,315.214 918.044,316.087 918.197,317.007Z" style="fill:rgb(117,117,117);fill-rule:nonzero;"/>
        <path d="M916.511,317.172C915.85,317.231 915.202,317.29 914.541,317.337C914.081,317.372 913.609,317.337 913.138,317.242C912.548,315.639 911.982,314.034 911.404,312.442C911.192,311.853 910.968,311.251 910.578,310.768C910.177,310.284 909.576,309.918 908.951,309.989C908.42,310.048 907.984,310.402 907.689,310.85C907.854,310.308 908.22,309.789 908.809,309.329C909.293,308.951 909.847,308.503 910.508,307.984C910.814,307.89 911.109,307.807 911.404,307.737C911.357,309.588 912.312,311.381 913.433,312.891C914.47,314.306 915.685,315.639 916.511,317.172Z" style="fill:rgb(238,238,238);fill-rule:nonzero;"/>
        <path d="M907.957,306.429C907.957,306.429 885.145,295.522 904.779,270.679C920.132,251.253 903.974,240.713 903.974,240.713C903.974,240.713 920.851,248.333 910.2,269.274C897.692,293.864 907.957,306.429 907.957,306.429Z" style="fill:rgb(243,243,243);fill-rule:nonzero;"/>
        <path d="M916.507,285.409C911.295,285.409 905.441,283.791 914.726,274.506C923.524,265.707 914.881,255.902 914.881,255.902C914.881,255.902 928.593,261.198 918.901,274.506C911.864,284.168 918.621,284.978 921.084,284.978C921.58,284.978 921.901,284.945 921.901,284.945C921.901,284.945 919.296,285.409 916.507,285.409Z" style="fill:rgb(243,243,243);fill-rule:nonzero;"/>
        <path d="M896.073,291.053C896.073,291.053 885.118,274.984 889.014,274.984C889.589,274.984 890.488,275.334 891.794,276.138C892.426,276.527 892.931,276.703 893.329,276.703C896.727,276.703 892.257,263.894 892.001,262.353C892.001,262.353 903.108,266.149 895.385,278.117C891.488,284.156 896.073,291.053 896.073,291.053Z" style="fill:rgb(243,243,243);fill-rule:nonzero;"/>
        <path d="M1028.64,420.993C1041.57,402.076 1050.54,380.446 1054.94,357.955C1056.48,350.03 1056.7,342.057 1056.72,334.155C1062.7,321.134 1063.89,309.494 1073.88,293.313L1072.12,378.311C1057.62,399.033 1040.3,415.733 1028.64,420.993Z" style="fill:rgb(62,80,89);fill-rule:nonzero;"/>
        <path d="M1101.8,648.869L1119.69,672.33L1145.54,647.137L1124.12,625.057C1124.12,625.057 1106.65,632.092 1101.8,648.869Z" style="fill:rgb(85,139,47);fill-rule:nonzero;"/>
        <path d="M1116.82,635.025C1116.82,635.025 1109.94,638.189 1105.23,647.516L1120.13,663.3L1143.29,649.915L1136.48,629.732L1116.82,635.025Z" style="fill:rgb(104,159,56);fill-rule:nonzero;"/>
        <path d="M1342.71,740.336C1342.71,740.336 1340.15,738.885 1336.16,737.883C1332.55,736.963 1327.76,736.42 1322.66,737.659C1320.46,738.19 1318.22,739.039 1315.97,740.336L1142.98,734.05L1319.91,604.317L1325.4,604.317L1342.71,740.336Z" style="fill:rgb(62,39,35);fill-rule:nonzero;"/>
        <path d="M1240.49,570.509L1260.15,571.933L1260.15,608.25L1245.21,608.25L1245.21,585.046L1240.49,585.341L1240.49,570.509Z" style="fill:rgb(62,39,35);fill-rule:nonzero;"/>
        <path d="M1311.88,661.254L1344.76,632.523L1311.88,620.355L1311.88,661.254Z" style="fill:rgb(85,139,47);fill-rule:nonzero;"/>
        <path d="M1317.56,650.357C1317.56,650.357 1326.2,639.025 1335.77,634.646C1345.35,630.268 1318.2,631.786 1318.2,631.786L1317.56,650.357Z" style="fill:rgb(104,159,56);fill-rule:nonzero;"/>
        <path d="M1329.7,615.462C1329.7,615.462 1349.91,620.86 1361.58,632.523L1345.64,657.717C1345.64,657.717 1335.21,632.523 1318.97,632.523L1329.7,615.462Z" style="fill:rgb(124,179,66);fill-rule:nonzero;"/>
        <path d="M1332.85,619.293C1332.85,619.293 1347.41,625.127 1354.8,632.523L1347.33,646.614C1347.33,646.614 1347.63,642.965 1336.59,636.589C1336.59,636.589 1344.53,629.101 1335.42,625.131C1326.32,621.161 1328.32,630.268 1328.32,630.268C1328.32,630.268 1327.02,625.598 1316.74,626.765L1325.85,616.958L1332.85,619.293Z" style="fill:rgb(156,204,101);fill-rule:nonzero;"/>
        <path d="M1319.86,606.345C1319.86,606.345 1327.75,584.265 1342.9,575.521L1357.84,610.081C1357.84,610.081 1332.21,619.28 1318.97,632.523L1319.86,606.345Z" style="fill:rgb(124,179,66);fill-rule:nonzero;"/>
        <path d="M1316.63,615.462C1316.63,615.462 1328.07,591.818 1340.27,584.773L1348.5,606.345L1338.4,612.173C1338.4,612.173 1334.14,597.227 1325.38,606.345C1316.63,615.462 1328.32,620.355 1328.32,620.355L1315.22,632.523L1316.63,615.462Z" style="fill:rgb(156,204,101);fill-rule:nonzero;"/>
        <path d="M1260.15,571.933C1260.15,571.933 1256.46,573.547 1256.46,576.495L1256.46,608.25L1260.15,606.295L1260.15,571.933Z" style="fill:rgb(78,52,46);fill-rule:nonzero;"/>
        <path d="M1158.88,264.655C1145.16,281.385 1131.28,296.289 1116.26,299.646L1108.87,284.444L1107.87,282.392L1108.47,279.962L1111.55,267.402L1125.39,254.475L1156.38,224.813C1153.23,245.841 1158.88,264.655 1158.88,264.655Z" style="fill:rgb(247,184,138);fill-rule:nonzero;"/>
        <path d="M1144,248.015C1144,248.015 1130.31,270.138 1108.47,279.962L1111.55,267.402L1125.39,254.475L1144,248.015Z" style="fill:rgb(206,126,91);fill-rule:nonzero;"/>
        <path d="M1105.35,620.044C1105.69,633.022 1109.12,644.655 1116.73,654.472C1121.61,647.706 1129.46,642.395 1137.92,637.376L1137.92,620.044C1126.06,615.127 1114.97,613.975 1105.35,620.044Z" style="fill:rgb(124,179,66);fill-rule:nonzero;"/>
        <path d="M1108.6,622.491C1108.6,622.491 1110.37,641.284 1117.32,645.299C1117.32,645.299 1122.16,635.76 1137.49,632.221L1129.83,615.913L1108.6,622.491Z" style="fill:rgb(156,204,101);fill-rule:nonzero;"/>
        <path d="M1132.77,608.25C1132.77,608.25 1117.05,593.424 1096.61,593.424L1093.46,625.548C1103.29,622.643 1112.68,622.179 1130.61,630.287L1132.77,608.25Z" style="fill:rgb(124,179,66);fill-rule:nonzero;"/>
        <path d="M1135.43,614.236C1135.43,614.236 1115.97,602.147 1101.82,599.198L1099.46,617.184C1099.46,617.184 1108.41,616.019 1115.38,620.044C1115.38,620.044 1118.96,608.814 1124.22,611.855C1129.49,614.896 1125.37,623.081 1125.37,623.081L1136.4,629.452L1135.43,614.236Z" style="fill:rgb(156,204,101);fill-rule:nonzero;"/>
        <path d="M1066.73,475.372C1066.73,475.372 1127.27,488.739 1173.66,470.655L1173.27,492.862C1173.27,492.862 1114.92,512.333 1060.98,491.343L1066.73,475.372Z" style="fill:rgb(33,33,33);fill-rule:nonzero;"/>
        <path d="M1092.23,287.713C1092.23,287.713 1070.39,396.185 1066.73,439.991C1063.07,483.796 1073.02,475.372 1073.02,475.372C1073.02,475.372 1110.76,491.884 1173.66,470.655L1167.37,285.884L1116.26,291.388L1092.23,287.713Z" style="fill:rgb(224,224,224);fill-rule:nonzero;"/>
        <path d="M1139.99,315.905L1125.33,310.923C1125.33,310.923 1110.51,368.241 1106.9,466.766L1108.47,301.108L1095.06,303.03L1116.26,291.388L1139.99,315.905Z" style="fill:rgb(189,189,189);fill-rule:nonzero;"/>
        <path d="M1116.26,291.388L1139.99,315.905C1154.65,302.027 1171.11,278.921 1162.59,268.479L1158.87,264.655C1158.87,264.655 1135.36,290.159 1116.26,291.388Z" style="fill:rgb(245,245,245);fill-rule:nonzero;"/>
        <path d="M1116.26,291.388L1092.23,304.754C1094.35,294.368 1098.42,285.229 1106.9,278.921L1109.18,277.04C1109.18,277.04 1111.45,288.612 1116.26,291.388Z" style="fill:rgb(245,245,245);fill-rule:nonzero;"/>
        <path d="M1101.41,299.646L1104.76,314.671C1109.23,309.941 1114.29,310.752 1119.69,314.671C1121.47,310.73 1124.14,308.491 1126.89,302.419L1116.26,291.388L1101.41,299.646Z" style="fill:rgb(211,47,47);fill-rule:nonzero;"/>
        <path d="M1229.48,547.424C1229.48,547.424 1207.47,557.141 1173.66,561.069C1173.31,561.104 1172.96,561.151 1172.61,561.187C1139.9,564.796 1142.38,554.677 1139.21,541.892C1136.02,528.978 1116.26,416.405 1130.42,355.856C1144.57,295.318 1175.43,278.924 1175.43,278.924L1218.58,294.622C1218.58,294.622 1212.64,306.368 1205.89,330.994L1205.87,330.994C1201.59,346.597 1196.97,367.366 1193.31,393.596C1189.57,420.427 1194.49,450.183 1201.79,476.306C1212.89,516.052 1229.48,547.424 1229.48,547.424Z" style="fill:rgb(69,90,100);fill-rule:nonzero;"/>
        <path d="M1125.37,405.789C1125.37,405.789 1136.75,344.006 1168.28,312.482L1162.59,305.541L1173.13,303.182L1175.43,278.921L1162.59,268.479C1167.86,278.921 1123.93,295.605 1125.37,405.789Z" style="fill:rgb(55,71,79);fill-rule:nonzero;"/>
        <path d="M1147.71,486.066C1147.71,486.066 1178.77,487.128 1190.96,476.159L1198.82,499.964C1198.82,499.964 1179.07,512.959 1147.71,508.713L1147.71,486.066Z" style="fill:rgb(55,71,79);fill-rule:nonzero;"/>
        <path d="M1172.61,561.187C1188.49,553.603 1207.08,539.089 1205.17,509.565C1204.7,502.327 1202.5,490.66 1198.76,477.168C1193.64,458.663 1187.44,436.423 1181.52,417.762C1170.52,383.076 1192.9,329.676 1192.9,329.676L1205.87,330.994C1201.59,346.597 1196.97,367.366 1193.31,393.596C1192.43,399.937 1192.03,406.441 1192.03,413.022C1192.03,434.289 1196.22,456.357 1201.79,476.306C1212.89,516.052 1229.48,547.424 1229.48,547.424C1229.48,547.424 1207.47,557.141 1173.66,561.069C1173.31,561.104 1172.96,561.151 1172.61,561.187Z" style="fill:rgb(62,80,89);fill-rule:nonzero;"/>
        <path d="M1214.67,553.401L1195.94,587.505L1203.57,591.909L1209.83,588.293C1209.83,588.293 1222.41,594.979 1240.49,590.092L1240.49,561.928L1214.67,553.401Z" style="fill:rgb(247,184,138);fill-rule:nonzero;"/>
        <path d="M1215.53,543.777L1211.6,555.573C1211.6,555.573 1233.6,567.518 1244.61,561.163L1248.94,547.424L1215.53,543.777Z" style="fill:rgb(245,245,245);fill-rule:nonzero;"/>
        <path d="M1189.98,358.22C1189.98,358.22 1191.74,389.393 1217.12,438.053C1230.66,464.041 1217.12,529.025 1208.65,547.424C1208.65,547.424 1244.47,564.252 1250.32,551.486C1256.17,538.721 1266.2,463.492 1260.15,436.06C1250.32,391.528 1224.63,329.127 1218.58,294.622C1218.58,294.622 1186.04,314.976 1189.98,358.22Z" style="fill:rgb(69,90,100);fill-rule:nonzero;"/>
        <path d="M1213.39,557.632L1193.35,574.532L1205.17,573.536L1213.39,557.632Z" style="fill:rgb(247,184,138);fill-rule:nonzero;"/>
        <path d="M1205.17,573.536L1181.52,575.528L1184.67,608.25L1198.82,608.25L1195.94,587.506L1205.17,573.536Z" style="fill:rgb(62,39,35);fill-rule:nonzero;"/>
        <path d="M1132.77,608.25L1319.9,604.319L1315.97,740.341L1142.98,734.051L1132.77,608.25Z" style="fill:rgb(78,52,46);fill-rule:nonzero;"/>
        <path d="M1311.82,840.196C1311.82,840.196 1318.98,788.636 1342.71,774.937L1359.22,799.704C1359.22,799.704 1334.63,815.822 1325.69,843.341L1311.82,840.196Z" style="fill:rgb(124,179,66);fill-rule:nonzero;"/>
        <path d="M1365.51,751.349C1365.51,751.349 1372.75,733.916 1384.77,726.975C1384.77,726.975 1406.31,748.204 1411.85,774.937L1403.25,786.731C1403.25,786.731 1389.1,756.067 1365.51,751.349Z" style="fill:rgb(124,179,66);fill-rule:nonzero;"/>
        <path d="M1370.22,881.868L1376.52,867.245C1376.52,867.245 1410.32,859.698 1443.35,867.245C1433.13,872.997 1430.1,877.14 1425.26,886.585L1370.22,881.868Z" style="fill:rgb(124,179,66);fill-rule:nonzero;"/>
        <path d="M1073.87,293.313C1073.87,293.313 1061.87,326.611 1061.87,391.87C1061.87,480.717 1026.63,531.983 1026.63,531.983C1026.63,531.983 1053.86,559.48 1065.92,547.424C1077.98,535.367 1083.91,428.197 1083.91,399.105C1083.91,370.014 1095.16,290.586 1095.33,285.039L1073.87,293.313Z" style="fill:rgb(69,90,100);fill-rule:nonzero;"/>
        <path d="M1083.91,399.105C1083.91,399.105 1085.68,333.939 1078.94,310.937L1086.51,304.754L1080.97,300.037L1095.33,285.039L1106.9,278.921C1090.44,288.872 1095.33,322.485 1083.91,399.105Z" style="fill:rgb(55,71,79);fill-rule:nonzero;"/>
        <path d="M1049.43,474.586L1058.87,476.159L1054.15,499.746C1054.15,499.746 1048.03,498.23 1043.25,493.456L1049.43,474.586Z" style="fill:rgb(55,71,79);fill-rule:nonzero;"/>
        <path d="M1057.06,146.8C1057.06,146.8 1054.72,165.955 1056.85,175.119C1058.98,184.283 1077.71,196.407 1077.71,196.407L1088.98,149.251L1057.06,146.8Z" style="fill:rgb(94,43,35);fill-rule:nonzero;"/>
        <path d="M1063.25,167.27C1063.25,167.27 1064.54,197.891 1064.75,202.868C1064.95,207.844 1069.36,212.467 1069.72,215.132C1070.08,217.797 1065.45,223.4 1065.92,227.77C1066.39,232.139 1080.54,249.22 1087.88,269.939C1088.86,272.709 1093.22,272.932 1098.47,273.268C1103.72,273.604 1106.78,273.906 1110.18,272.022C1117.29,268.083 1126.83,263.758 1138.12,255.442C1151.47,245.607 1155.86,230.643 1156.36,224.466C1158.06,203.503 1169.35,166.325 1153.72,158.15C1138.08,149.975 1066.39,129.096 1063.25,167.27Z" style="fill:rgb(247,184,138);fill-rule:nonzero;"/>
        <path d="M1177.92,192.234C1177.64,193.124 1177.17,194.194 1176.57,195.399C1176.3,195.929 1176,196.486 1175.68,197.071C1175.41,197.574 1175.1,198.095 1174.79,198.635C1174.48,199.156 1174.16,199.696 1173.82,200.244C1173,201.583 1172.11,202.986 1171.17,204.406C1170.78,204.982 1170.39,205.566 1170,206.159C1163.8,215.32 1156.38,224.813 1156.38,224.813L1154.36,212.91L1148,217.963L1149.1,203.777L1149.24,201.898L1150.18,189.627L1150.33,187.703L1150.57,184.602L1147.78,182.723L1142.77,179.343L1142.76,179.271L1140.88,161.633C1140.88,161.633 1122.94,152.608 1084.18,166.946C1082.87,167.432 1080.02,166.811 1076.44,165.436C1075.35,165.031 1074.18,164.528 1072.97,163.989C1067.06,161.31 1060.1,157.228 1054.99,153.048C1054.03,152.266 1053.14,151.475 1052.33,150.711C1049.64,148.104 1047.89,145.56 1047.72,143.375C1047.03,133.954 1095.01,111.543 1103.73,111.291C1112.45,111.048 1171.11,130.178 1174.96,137.101C1176.63,140.121 1177.91,149.344 1178.6,159.512C1178.71,161.076 1178.8,162.676 1178.88,164.285C1178.98,166.407 1179.06,168.546 1179.1,170.632C1179.14,172.115 1179.17,173.59 1179.17,175.019C1179.21,182.732 1178.83,189.331 1177.92,192.234Z" style="fill:rgb(124,67,53);fill-rule:nonzero;"/>
        <path d="M1101.02,202.525C1101.02,202.525 1099.3,214.218 1112.57,213.662C1125.84,213.106 1125.35,201.506 1125.35,201.506L1101.02,202.525Z" style="fill:white;fill-rule:nonzero;"/>
        <path d="M1098.86,182.569C1098.86,182.569 1119.27,186.69 1129.3,192.755L1132.39,189.278C1132.39,189.278 1120.76,177.642 1099.72,171.603L1098.86,182.569Z" style="fill:rgb(94,43,35);fill-rule:nonzero;"/>
        <path d="M1061.67,195.037L1062.08,200.564C1068.29,195.757 1078.52,192.058 1078.52,192.058L1078.09,182.642C1071.62,186.357 1064.97,192.056 1061.67,195.037Z" style="fill:rgb(94,43,35);fill-rule:nonzero;"/>
        <path d="M1120.63,202.811C1120.77,206.018 1118.28,208.726 1115.07,208.861C1111.86,208.995 1109.15,206.504 1109.02,203.298C1108.88,200.091 1111.54,200.527 1114.75,200.393C1117.96,200.259 1120.5,199.605 1120.63,202.811Z" style="fill:rgb(94,43,35);fill-rule:nonzero;"/>
        <path d="M1084.27,203.193C1084.27,203.193 1086.33,214.728 1076.92,215.122C1067.51,215.516 1067.02,203.915 1067.02,203.915L1084.27,203.193Z" style="fill:white;fill-rule:nonzero;"/>
        <path d="M1085.76,202.461C1085.76,202.461 1090.19,216.958 1080.48,225.576C1080.48,225.576 1089.32,241.252 1102.6,226.677C1102.6,226.677 1089.48,235.604 1084.32,225.644C1084.32,225.644 1091.54,212.744 1085.76,202.461Z" style="fill:rgb(206,126,91);fill-rule:nonzero;"/>
        <path d="M1082.34,205.296C1082.45,207.919 1080.41,210.135 1077.79,210.245C1075.16,210.355 1072.95,208.317 1072.84,205.694C1072.73,203.07 1074.83,202.494 1077.46,202.384C1080.08,202.274 1082.23,202.672 1082.34,205.296Z" style="fill:rgb(94,43,35);fill-rule:nonzero;"/>
        <path d="M1094.04,254.167L1095.12,256.58C1101.52,258.746 1105.99,251.331 1105.99,251.331C1101.82,254.327 1098.02,254.91 1094.04,254.167Z" style="fill:rgb(206,126,91);fill-rule:nonzero;"/>
        <path d="M1082.27,239.205C1082.27,239.205 1109.09,241.804 1117.2,231.502C1117.2,231.502 1111.36,246.266 1102.16,248.817C1094.12,251.047 1088.54,249.216 1088.54,249.216C1088.54,249.216 1085.1,243.87 1082.27,239.205Z" style="fill:rgb(206,126,91);fill-rule:nonzero;"/>
        <path d="M1086.84,241.741L1089.88,245.324L1089.41,247.557C1089.41,247.557 1104.99,251.377 1112.97,236.939C1112.97,236.939 1105.84,243.702 1086.84,241.741Z" style="fill:white;fill-rule:nonzero;"/>
        <path d="M1115.66,230.488C1115.66,230.488 1118.56,231.837 1120.55,233.559L1119.64,234.181C1119.64,234.181 1116.95,232.386 1114.53,232.564L1115.66,230.488Z" style="fill:rgb(206,126,91);fill-rule:nonzero;"/>
        <path d="M1098.18,481.49L1111.55,483.619L1111.55,497.771L1095.33,497.771L1095.33,501.083L1113.07,502.489L1115.38,479.305L1098.18,479.514L1098.18,481.49Z" style="fill:rgb(189,189,189);fill-rule:nonzero;"/>
        <path d="M1119.69,314.671C1119.69,314.671 1108.4,383.38 1108.4,420.334L1108.4,474.586L1093.46,493.456L1083.91,478.602C1083.91,478.602 1088.64,350.839 1104.76,314.671C1110.76,306.937 1115.56,308.264 1119.69,314.671Z" style="fill:rgb(211,47,47);fill-rule:nonzero;"/>
        <rect x="1108.6" y="490.897" width="6.78" height="1.965" style="fill:rgb(224,224,224);fill-rule:nonzero;"/>
        <path d="M1319.91,604.317L1313.61,683.725L1125.37,683.725L1125.37,683.678L1125.39,683.548L1132.77,608.244L1319.91,604.317Z" style="fill:rgb(62,39,35);fill-rule:nonzero;"/>
        <path d="M1181.52,673.205L1181.52,694.257L1158.72,694.257L1153.45,676.956L1181.52,673.205Z" style="fill:rgb(255,202,40);fill-rule:nonzero;"/>
        <path d="M1288.23,676.543L1288.23,694.257L1265.42,694.257L1260.15,676.956L1288.23,676.543Z" style="fill:rgb(255,202,40);fill-rule:nonzero;"/>
        <path d="M1315.22,837.298C1315.22,837.298 1323.6,797.093 1340.27,781.905L1351.75,798.417C1351.75,798.417 1339.85,802.25 1335.77,812.078C1335.77,812.078 1331.54,800.737 1327.69,809.602C1323.84,818.466 1331.86,818.466 1331.86,818.466C1331.86,818.466 1326.95,826.312 1323.44,837.298L1315.22,837.298Z" style="fill:rgb(156,204,101);fill-rule:nonzero;"/>
        <path d="M1370.22,747.703L1383.59,734.73C1383.59,734.73 1401.28,746.917 1406.79,772.077L1402.85,777.581L1391.85,763.821C1391.85,763.821 1404.33,765.099 1395.39,756.155C1386.44,747.212 1388.51,759.497 1388.51,759.497C1388.51,759.497 1382.34,754.697 1370.22,747.703Z" style="fill:rgb(156,204,101);fill-rule:nonzero;"/>
        <path d="M1379.66,870.359L1376.12,878.615L1391.85,878.615C1391.85,878.615 1389.1,867.214 1402.07,870.359C1415.04,873.504 1402.07,878.615 1402.07,878.615L1420.55,881.76C1420.55,881.76 1418.19,870.814 1432.73,867.245C1432.73,867.245 1404.82,862.89 1379.66,870.359Z" style="fill:rgb(156,204,101);fill-rule:nonzero;"/>
        <path d="M1125.37,683.725L1125.37,683.678L1125.39,683.548C1125.38,683.666 1125.37,683.725 1125.37,683.725Z" style="fill:rgb(56,38,35);fill-rule:nonzero;"/>
        <path d="M1125.39,683.548L1132.77,608.244L1319.91,604.317C1319.91,604.317 1203.37,614.825 1167.48,620.357C1134,625.518 1125.85,679.987 1125.39,683.548Z" style="fill:rgb(78,53,48);fill-rule:nonzero;"/>
        <path d="M1181.52,673.205L1158.72,680.081L1158.72,694.257L1153.45,676.956L1181.52,673.205Z" style="fill:rgb(255,241,118);fill-rule:nonzero;"/>
        <path d="M1288.23,676.543L1265.42,680.081L1265.42,694.257L1260.15,676.956L1288.23,676.543Z" style="fill:rgb(255,241,118);fill-rule:nonzero;"/>
        <path d="M1336.16,737.883C1332.55,736.963 1327.76,736.42 1322.66,737.659C1322.66,718.081 1322.84,663.77 1324.63,665.539C1326.27,667.178 1333,714.873 1336.16,737.883Z" style="fill:rgb(45,27,25);fill-rule:nonzero;"/>
        <path d="M1178.88,164.284C1165.49,153.375 1143.21,137.548 1119.28,130.342C1091.18,121.874 1066,142.159 1054.99,153.045C1054.03,152.267 1053.14,151.476 1052.34,150.71C1063.8,139.352 1090.35,117.923 1120.3,126.945C1143.31,133.88 1164.77,148.551 1178.6,159.508C1178.71,161.077 1178.8,162.68 1178.88,164.284Z" style="fill:rgb(94,43,35);fill-rule:nonzero;"/>
        <path d="M1179.17,175.017C1161.9,163.07 1130.81,143.975 1108.46,143.975C1097.23,143.975 1084.46,156.217 1076.44,165.44C1075.35,165.027 1074.18,164.532 1072.97,163.99C1081.32,154.224 1095.42,140.437 1108.46,140.437C1131.11,140.437 1161.23,158.399 1179.11,170.63C1179.14,172.116 1179.17,173.59 1179.17,175.017Z" style="fill:rgb(94,43,35);fill-rule:nonzero;"/>
        <path d="M947.052,285.301C940.541,295.857 927.757,299.36 920.834,300.504C926.648,296.647 934.963,291.635 947.052,285.301Z" style="fill:rgb(109,76,65);fill-rule:nonzero;"/>
        <path d="M1076.35,208.195C1077.01,208.796 1076.97,209.923 1076.26,210.712C1075.54,211.5 1074.42,211.652 1073.76,211.05C1073.1,210.448 1073.14,209.321 1073.85,208.533C1074.57,207.744 1075.69,207.593 1076.35,208.195Z" style="fill:white;fill-rule:nonzero;"/>
        <path d="M1114.24,207.026C1114.9,207.627 1114.86,208.754 1114.14,209.543C1113.43,210.331 1112.31,210.483 1111.65,209.881C1110.98,209.279 1111.03,208.152 1111.74,207.364C1112.46,206.575 1113.57,206.424 1114.24,207.026Z" style="fill:white;fill-rule:nonzero;"/>
        <path d="M1176.57,195.399C1176.3,195.929 1176,196.486 1175.68,197.071C1166.73,191.659 1157.39,186.912 1147.78,182.723L1142.77,179.343L1142.76,179.271C1143.02,178.983 1143.43,178.822 1143.88,179.01C1155.19,183.694 1166.12,189.097 1176.57,195.399Z" style="fill:rgb(94,43,35);fill-rule:nonzero;"/>
        <path d="M1174.79,198.635C1174.48,199.156 1174.16,199.696 1173.82,200.244C1166.5,195.623 1158.48,192.072 1150.18,189.627L1150.33,187.703C1158.92,190.203 1167.21,193.861 1174.79,198.635Z" style="fill:rgb(94,43,35);fill-rule:nonzero;"/>
        <path d="M1171.17,204.406C1170.78,204.982 1170.39,205.566 1170,206.159C1163.03,205.368 1156.06,204.568 1149.1,203.777L1149.24,201.898L1171.17,204.406Z" style="fill:rgb(94,43,35);fill-rule:nonzero;"/>
        <path d="M1154.44,212.888C1154.44,212.888 1156.38,196.755 1164.69,198.361C1173,199.967 1180.83,213.893 1155.91,225.976C1145.64,230.958 1154.44,212.888 1154.44,212.888Z" style="fill:rgb(247,184,138);fill-rule:nonzero;"/>
        <path d="M1158.49,217.797C1158.49,217.797 1160.65,200.578 1164.13,202.73C1167.6,204.882 1168.17,209.962 1168.17,209.962L1166.7,210.784C1166.7,210.784 1165.23,203.931 1163.41,207.803C1163.41,207.803 1166.29,210.381 1165.53,216.366C1165.53,216.366 1164.38,209.773 1162.01,209.836C1160.96,210.936 1160.08,212.893 1158.49,217.797Z" style="fill:rgb(206,126,91);fill-rule:nonzero;"/>
        <path d="M1126.76,202.363C1119.28,197.57 1108.45,198.583 1100.28,200.789C1098.61,201.241 1099.32,203.839 1101,203.39C1109.7,201.064 1117.87,202.21 1126.66,202.736C1126.87,202.748 1126.92,202.464 1126.76,202.363Z" style="fill:rgb(206,126,91);fill-rule:nonzero;"/>
        <path d="M1065.64,205.218C1068.7,204.914 1071.64,204.01 1074.75,203.852C1077.98,203.687 1081.07,204.111 1084.27,204.436C1085.71,204.582 1085.89,202.39 1084.6,201.994C1079.05,200.286 1069.81,200.411 1065.54,204.967C1065.46,205.052 1065.51,205.232 1065.64,205.218Z" style="fill:rgb(206,126,91);fill-rule:nonzero;"/>
        <path d="M1150.7,354.006C1150.7,354.006 1164.92,358.028 1173.84,356.683L1173.66,362.463C1165.81,363.239 1157.91,362.359 1149.3,359.534L1150.7,354.006Z" style="fill:rgb(55,71,79);fill-rule:nonzero;"/>
        <path d="M1068.56,346.55C1068.56,346.55 1075,349.492 1079.15,348.115L1078.9,352.936C1075.26,353.808 1071.64,353.302 1067.76,351.196L1068.56,346.55Z" style="fill:rgb(55,71,79);fill-rule:nonzero;"/>
    </g>
</svg>
